HIERARCHY
ROOT Hips
{
	OFFSET 0.000000 0.000000 0.000000
	CHANNELS 6 Xposition Yposition Zposition Xrotation Yrotation Zrotation
	JOINT LeftUpLeg_virtual
	{
		OFFSET 0.000000 0.000000 0.000000
		CHANNELS 3 Xrotation Yrotation Zrotation
		JOINT LeftUpLeg
		{
			OFFSET 10.205400 -3.823500 0.155100
			CHANNELS 3 Xrotation Yrotation Zrotation
			JOINT LeftLeg
			{
				OFFSET 0.708757 -12.982077 0.567790
				CHANNELS 3 Xrotation Yrotation Zrotation
				JOINT LeftFoot
				{
					OFFSET -0.708756 -10.717838 -2.184338
					CHANNELS 3 Xrotation Yrotation Zrotation
					JOINT LeftToeBase
					{
						OFFSET 0.108149 -7.191104 7.560241
						CHANNELS 3 Xrotation Yrotation Zrotation
						JOINT LeftToe_End
						{
							OFFSET 0.070230 0.081724 4.490308
							CHANNELS 3 Xrotation Yrotation Zrotation
							End Site
							{
								OFFSET 0 0 0
							}
						}
					}
				}
			}
		}
	}
	JOINT RightUpLeg_virtual
	{
		OFFSET 0.000000 0.000000 0.000000
		CHANNELS 3 Xrotation Yrotation Zrotation
		JOINT RightUpLeg
		{
			OFFSET -10.205400 -3.823500 0.005500
			CHANNELS 3 Xrotation Yrotation Zrotation
			JOINT RightLeg
			{
				OFFSET -0.708756 -12.982134 0.610632
				CHANNELS 3 Xrotation Yrotation Zrotation
				JOINT RightFoot
				{
					OFFSET 0.708754 -10.717769 -1.945823
					CHANNELS 3 Xrotation Yrotation Zrotation
					JOINT RightToeBase
					{
						OFFSET -0.108140 -7.191069 7.372968
						CHANNELS 3 Xrotation Yrotation Zrotation
						JOINT RightToe_End
						{
							OFFSET -0.070227 0.081735 4.479403
							CHANNELS 3 Xrotation Yrotation Zrotation
							End Site
							{
								OFFSET 0 0 0
							}
						}
					}
				}
			}
		}
	}
	JOINT Spine_virtual
	{
		OFFSET 0.000000 0.000000 0.000000
		CHANNELS 3 Xrotation Yrotation Zrotation
		JOINT Spine
		{
			OFFSET 0.000000 6.876099 0.125700
			CHANNELS 3 Xrotation Yrotation Zrotation
			JOINT Spine1
			{
				OFFSET 0.000000 5.730043 0.104720
				CHANNELS 3 Xrotation Yrotation Zrotation
				JOINT Spine1_split
				{
					OFFSET 0.000000 5.730043 0.104720
					CHANNELS 3 Xrotation Yrotation Zrotation
					JOINT Spine2
					{
						OFFSET 0.000000 5.730043 0.104720
						CHANNELS 3 Xrotation Yrotation Zrotation
						JOINT Neck_virtual
						{
							OFFSET 0.000000 0.000000 0.000000
							CHANNELS 3 Xrotation Yrotation Zrotation
							JOINT Neck
							{
								OFFSET 0.000000 10.314075 0.188496
								CHANNELS 3 Xrotation Yrotation Zrotation
								JOINT Head
								{
									OFFSET 0.000000 7.643700 -2.377400
									CHANNELS 3 Xrotation Yrotation Zrotation
									JOINT HeadTop_End
									{
										OFFSET 0.000000 43.788605 -13.619600
										CHANNELS 3 Xrotation Yrotation Zrotation
										End Site
										{
											OFFSET 0 0 0
										}
									}
								}
							}
						}
						JOINT LeftShoulder_virtual
						{
							OFFSET 0.000000 0.000000 0.000000
							CHANNELS 3 Xrotation Yrotation Zrotation
							JOINT LeftShoulder
							{
								OFFSET 2.196100 4.412489 0.087492
								CHANNELS 3 Xrotation Yrotation Zrotation
								JOINT LeftShoulder_split
								{
									OFFSET 2.196100 4.412489 0.087492
									CHANNELS 3 Xrotation Yrotation Zrotation
									JOINT LeftArm
									{
										OFFSET 8.771219 -2.981674 -0.026999
										CHANNELS 3 Xrotation Yrotation Zrotation
										JOINT LeftForeArm
										{
											OFFSET 8.512804 0.000000 -0.000000
											CHANNELS 3 Xrotation Yrotation Zrotation
											JOINT LeftHand
											{
												OFFSET 18.484802 0.000000 -0.000000
												CHANNELS 3 Xrotation Yrotation Zrotation
												End Site
												{
													OFFSET 0 0 0
												}
											}
										}
									}
								}
							}
						}
						JOINT RightShoulder_virtual
						{
							OFFSET 0.000000 0.000000 0.000000
							CHANNELS 3 Xrotation Yrotation Zrotation
							JOINT RightShoulder
							{
								OFFSET -2.196100 4.412496 0.070690
								CHANNELS 3 Xrotation Yrotation Zrotation
								JOINT RightShoulder_split
								{
									OFFSET -2.196100 4.412496 0.070690
									CHANNELS 3 Xrotation Yrotation Zrotation
									JOINT RightArm
									{
										OFFSET -8.771282 -2.981682 -0.094208
										CHANNELS 3 Xrotation Yrotation Zrotation
										JOINT RightForeArm
										{
											OFFSET -8.494598 0.000000 0.000000
											CHANNELS 3 Xrotation Yrotation Zrotation
											JOINT RightHand
											{
												OFFSET -18.483803 0.000000 0.000001
												CHANNELS 3 Xrotation Yrotation Zrotation
												End Site
												{
													OFFSET 0 0 0
												}
											}
										}
									}
								}
							}
						}
					}
				}
			}
		}
	}
}
MOTION
Frames: 10
Frame Time: 0.03333333
0.073772 29.592566 0.769299 0.000000 0.000000 0.000000 -29.982393 -54.631534 -10.356374 -20.077293 3.344309 23.252484 51.329954 -16.668448 -2.540404 -5.157108 6.060019 -28.179735 -10.721232 -0.860146 0.719936 0.000000 0.000000 0.000000 -26.020929 -51.304642 -7.881692 -13.938667 -0.290921 -27.523849 48.288512 7.315609 -7.212368 -23.692162 -8.111142 20.478411 -6.093886 2.379803 -3.656920 0.000000 0.000000 0.000000 -24.841485 -43.423037 -9.258481 13.190248 5.262575 -0.717825 12.686708 2.696736 -7.024270 1.629460 -0.598949 1.490817 0.000000 0.000000 0.000000 11.032225 2.272998 -5.215159 3.830251 -1.237133 -0.166176 -17.486135 31.418515 -12.944361 0.000000 0.000000 0.000000 14.179455 1.635862 -4.786075 1.539295 -12.608287 6.305267 -7.971257 -1.594208 -2.307983 -26.300866 28.527907 -59.768253 170.627811 -52.137170 173.181823 0.000000 0.000000 0.000000 12.375178 1.696783 -4.357106 13.133762 28.382120 -0.788863 -6.619394 -3.162523 1.590434 -55.270519 42.227207 53.875795 170.010184 77.345458 -171.451545 0.000000 0.000000 0.000000 
-0.409502 29.528351 -0.246935 0.000000 0.000000 0.000000 -27.074995 -53.503454 -7.430501 -23.169158 3.587982 20.149599 46.611376 -14.665220 -2.755599 -2.044119 4.487578 -23.427913 -10.869524 -0.750847 0.153561 0.000000 0.000000 0.000000 -24.131057 -50.367318 -5.867668 -14.383619 -0.625477 -27.979802 53.545548 7.285306 -7.723528 -24.417344 -8.713306 19.485433 -5.111374 1.919630 -3.314945 0.000000 0.000000 0.000000 -22.889173 -42.804386 -7.107915 13.602119 4.763327 -1.383860 13.197012 2.717400 -7.055707 1.951159 0.276400 1.798684 0.000000 0.000000 0.000000 11.852112 2.069154 -5.368296 5.022744 -0.634205 -0.486280 -16.752828 29.758830 -12.369853 0.000000 0.000000 0.000000 14.900097 1.472319 -4.891992 1.767014 -12.714611 5.984183 -5.465409 -3.301656 -2.183103 -28.179300 26.842329 -58.040379 170.026440 -53.718123 172.478915 0.000000 0.000000 0.000000 12.774010 1.533881 -4.514369 12.802338 27.721229 -0.801168 -6.722918 -1.875783 2.550000 -56.200145 40.852188 54.551925 173.532157 75.055091 -174.809662 0.000000 0.000000 0.000000 
-0.875354 29.583326 -1.678600 0.000000 0.000000 0.000000 -21.357727 -49.660840 -2.140437 -28.908735 2.467847 17.031020 39.900582 -14.213262 -2.507089 8.628925 -0.730815 -23.983521 -11.193751 -0.968842 0.684810 0.000000 0.000000 0.000000 -20.002508 -46.852007 -1.664623 -14.450408 -1.393330 -28.006619 59.380251 5.797029 -7.645048 -27.018949 -10.618182 15.748053 -4.163805 1.227736 -2.132445 0.000000 0.000000 0.000000 -18.824025 -39.865215 -2.928301 16.073423 4.395840 -2.401669 13.747960 2.918415 -7.134940 2.551249 0.619132 2.403150 0.000000 0.000000 0.000000 12.618399 2.136617 -5.731873 4.043311 -0.374542 -1.294334 -17.698227 26.199166 -9.868034 0.000000 0.000000 0.000000 15.377196 1.618905 -5.156300 1.890237 -13.591893 4.540358 -4.183490 -4.990091 -1.386776 -30.392942 21.236028 -54.038930 169.941062 -55.125637 172.855600 0.000000 0.000000 0.000000 13.371776 1.600810 -4.939555 12.496634 26.513266 -1.555805 -7.369784 -1.390486 3.791756 -57.290992 37.268982 53.479087 177.569742 72.572235 -178.652791 0.000000 0.000000 0.000000 
-1.281628 29.846874 -3.289577 0.000000 0.000000 0.000000 -14.971191 -43.524206 3.352834 -36.601928 0.404614 14.677798 32.713867 -14.386607 -2.271905 22.890588 -8.005777 -26.347055 -12.230763 -1.427632 2.568809 0.000000 0.000000 0.000000 -15.090087 -41.302974 3.041869 -14.399424 -2.442501 -27.514852 63.100272 3.682067 -6.999766 -30.274066 -12.683033 10.813378 -3.632154 0.611644 -0.652579 0.000000 0.000000 0.000000 -13.744866 -35.154748 1.811546 20.379401 4.032747 -3.424409 14.287242 3.181759 -7.124635 2.558053 0.239217 3.379186 0.000000 0.000000 0.000000 13.303873 2.410306 -6.050126 1.151001 -0.376965 -2.539536 -19.692267 21.232089 -6.292073 0.000000 0.000000 0.000000 15.568701 1.956641 -5.424231 1.962427 -15.086385 2.675475 -4.141258 -5.775710 -0.708677 -32.956096 13.092563 -48.680602 170.561339 -56.176168 174.312151 0.000000 0.000000 0.000000 14.060650 1.842294 -5.387789 12.337827 25.266741 -3.300565 -8.494491 -1.644915 4.960966 -58.486486 32.509826 50.072393 -178.996732 71.140177 178.165539 0.000000 0.000000 0.000000 
-1.634049 30.252197 -5.141424 0.000000 0.000000 0.000000 -9.321452 -36.059386 7.741977 -45.900220 -2.237794 12.826341 26.832244 -13.983140 -2.103132 36.437956 -14.310796 -27.027969 -12.405216 -1.813228 4.748534 0.000000 0.000000 0.000000 -10.338957 -34.543105 7.053903 -14.464141 -3.423834 -26.764170 63.285637 1.986177 -6.087188 -32.576802 -13.795874 7.401388 -3.514347 0.339439 0.455780 0.000000 0.000000 0.000000 -8.894818 -29.243100 5.943457 26.209560 3.591597 -4.120615 14.743313 3.391684 -6.899426 2.454662 0.526548 3.633704 0.000000 0.000000 0.000000 13.933834 2.727660 -6.066979 -2.891389 -0.617338 -3.965287 -21.959533 15.652195 -2.655707 0.000000 0.000000 0.000000 15.530838 2.338245 -5.474986 2.040338 -16.957294 1.225778 -4.569661 -5.501113 -0.318735 -36.422110 4.133744 -42.968290 171.891013 -57.459766 176.706051 0.000000 0.000000 0.000000 14.757035 2.099389 -5.636107 12.335870 24.329262 -6.183645 -9.448578 -2.040785 5.533617 -60.511958 27.192102 44.123029 -175.726506 72.115740 175.115887 0.000000 0.000000 0.000000 
-1.991700 30.620396 -6.906519 0.000000 0.000000 0.000000 -5.125741 -28.350315 10.605194 -55.697963 -4.507209 11.056048 23.498347 -12.244035 -2.112169 45.959540 -16.788661 -25.520901 -9.850902 -1.787423 5.559150 0.000000 0.000000 0.000000 -6.515437 -27.745982 9.807442 -14.965388 -4.345938 -26.123761 60.082060 1.156243 -5.090241 -32.716480 -13.978584 7.192329 -3.716889 0.433454 0.785091 0.000000 0.000000 0.000000 -5.190250 -23.311439 8.930859 33.020976 3.103517 -4.292696 15.053110 3.442241 -6.411462 2.420562 0.823144 3.655024 0.000000 0.000000 0.000000 14.492644 2.947470 -5.681244 -7.056988 -0.937452 -5.375178 -23.772306 10.394363 0.425040 0.000000 0.000000 0.000000 15.407626 2.604613 -5.183594 2.279366 -18.827613 1.002241 -4.934194 -4.595911 -0.159333 -42.405895 -4.347346 -38.260435 173.929347 -60.212503 179.837747 0.000000 0.000000 0.000000 15.338511 2.276699 -5.537533 12.483650 23.824219 -10.143269 -10.268169 -2.334246 5.299118 -64.117007 22.472133 35.984442 -171.186998 76.250634 170.700457 0.000000 0.000000 0.000000 
-2.430336 30.802633 -8.422775 0.000000 0.000000 0.000000 -2.422162 -20.682614 12.295194 -64.823816 -5.259530 9.338451 23.036293 -8.408180 -2.282236 49.401754 -14.446451 -22.139196 -5.237381 -1.421714 4.745034 0.000000 0.000000 0.000000 -3.816321 -21.415860 11.473920 -15.950558 -5.327663 -25.632751 55.226458 0.987283 -4.102981 -31.670207 -13.617510 9.584719 -3.828388 0.752010 0.169976 0.000000 0.000000 0.000000 -2.749169 -17.684529 10.816142 40.195158 2.725162 -3.860801 15.144676 3.326906 -5.683257 2.235304 1.317093 3.081961 0.000000 0.000000 0.000000 14.920736 3.010379 -4.945542 -10.297855 -1.181981 -6.290372 -24.587453 5.767614 2.669133 0.000000 0.000000 0.000000 15.334157 2.706386 -4.570477 2.737604 -20.231399 2.219750 -4.610248 -3.533653 -0.222335 -51.814368 -12.067622 -35.922185 176.637585 -65.066199 -176.598817 0.000000 0.000000 0.000000 15.638365 2.273593 -5.081596 12.804830 23.613349 -14.786924 -10.893712 -2.233621 4.337112 -69.455839 19.084419 26.940155 -158.637987 82.947982 158.029868 0.000000 0.000000 0.000000 
-2.924043 30.683052 -9.728456 0.000000 0.000000 0.000000 -1.173690 -13.558293 13.188785 -71.701461 -3.871592 7.514636 24.912027 -3.158829 -2.672459 46.869048 -8.869571 -17.044368 -1.385337 -1.047402 2.840626 0.000000 0.000000 0.000000 -2.438359 -15.614383 12.460773 -17.219727 -6.287981 -25.308829 51.477838 0.970894 -2.914407 -31.382551 -13.016512 12.807069 -3.381583 1.085651 -1.031404 0.000000 0.000000 0.000000 -1.661761 -12.185965 11.877658 47.083626 2.503549 -2.944543 15.011788 3.070464 -4.794105 2.206770 1.882045 2.349809 0.000000 0.000000 0.000000 15.116617 2.873974 -3.989635 -11.912237 -1.440670 -6.430352 -24.137552 1.822183 4.029292 0.000000 0.000000 0.000000 15.294686 2.597959 -3.716823 3.340662 -21.024132 4.531517 -4.342482 -2.396886 -0.531191 -64.593188 -18.694404 -37.036858 -179.245064 -72.788616 -171.965694 0.000000 0.000000 0.000000 15.794261 2.045558 -4.410752 13.078485 23.454047 -19.139380 -10.810751 -1.612855 3.273999 -75.618226 17.233650 18.678745 -63.463843 87.008660 62.513463 0.000000 0.000000 0.000000 
-3.375419 30.283459 -10.733109 0.000000 0.000000 0.000000 -1.276413 -7.601140 13.669236 -75.727885 -0.911446 5.830170 28.441439 1.793753 -3.616537 39.721737 -3.334645 -11.264449 -0.595343 -0.812550 0.996380 0.000000 0.000000 0.000000 -2.387375 -10.255605 13.084108 -18.450984 -7.550567 -25.172273 50.922124 0.428670 -1.464352 -33.101272 -13.019867 14.947285 -2.432077 1.256476 -2.274158 0.000000 0.000000 0.000000 -1.655778 -6.865591 12.601414 53.107682 2.431822 -1.810112 14.687770 2.748322 -3.834710 2.249009 2.394375 2.119814 0.000000 0.000000 0.000000 14.984802 2.607537 -2.972208 -11.740244 -1.626571 -5.780695 -22.244946 -1.342138 4.717135 0.000000 0.000000 0.000000 15.263364 2.321862 -2.782490 3.829146 -21.063899 7.007827 -4.097328 -1.131607 -0.540800 -78.917249 -23.554614 -41.742896 -166.809434 -83.083719 -159.443403 0.000000 0.000000 0.000000 15.927610 1.724095 -3.659775 13.108403 23.203630 -22.125401 -9.931499 -0.597015 2.349116 -81.023474 16.576150 12.995230 -19.954908 82.524176 18.556413 0.000000 0.000000 0.000000 
-3.734872 29.682413 -11.494884 0.000000 0.000000 0.000000 -2.343402 -2.869886 14.019241 -78.106130 2.673053 4.512878 33.260340 5.236456 -5.198587 31.275720 -0.467461 -6.455545 -2.046510 -0.587446 0.040365 0.000000 0.000000 0.000000 -3.202609 -5.302521 13.491409 -19.177269 -9.270845 -24.963424 53.608997 -0.966734 0.050663 -36.650952 -14.289513 15.054230 -1.378148 1.214721 -3.110955 0.000000 0.000000 0.000000 -2.584087 -1.663340 13.166454 57.816923 2.479474 -0.713107 14.253970 2.457721 -2.833710 1.992500 2.385426 2.176419 0.000000 0.000000 0.000000 14.624489 2.311703 -1.999250 -10.056290 -1.797316 -4.349752 -18.904804 -3.771606 5.089622 0.000000 0.000000 0.000000 15.316851 2.011960 -1.839340 3.913300 -20.448118 8.515191 -3.872993 0.029835 -0.438369 -91.608218 -26.389800 -48.783984 -22.958351 -84.213077 -15.815938 0.000000 0.000000 0.000000 16.016172 1.382854 -2.848632 12.633080 22.774695 -22.864762 -8.237367 0.432874 2.125224 -84.555618 16.304532 10.846004 -15.868785 81.347799 13.973153 0.000000 0.000000 0.000000 
